# xmcd
#
# Track frame offsets: 
#        150
#        17460
#        30331
#        49397
#        62871
#        86291
#        101648
#        121600
#        131588
#        145696
#        172960
#        193654
#
# Disc length: 2830 seconds
#
# Revision: 1
# Processed by: cddbd v1.5.1PL0 Copyright (c) Steve Scherf et al.
# Submitted via: ExactAudioCopy v0.95a5
#
DISCID=930b0c0c
DTITLE=Charmin Michelle - Hot
DYEAR=2001
DGENRE=Jazz
TTITLE0=Rock Me To Sleep
TTITLE1=Them There Eyes
TTITLE2=Close Your Eyes
TTITLE3=Hungry Blues
TTITLE4=A Flower is a Lovesome Thing
TTITLE5=If You Were Mine
TTITLE6=My Heart Belongs to Daddy
TTITLE7=Only a Moment Ago
TTITLE8=Bli Blip
TTITLE9=I Don't Want to Cry Any More
TTITLE10=What a Little Moonlight Can Do
TTITLE11=Come On Over to My House
EXTD=
EXTT0=
EXTT1=
EXTT2=
EXTT3=
EXTT4=
EXTT5=
EXTT6=
EXTT7=
EXTT8=
EXTT9=
EXTT10=
EXTT11=
PLAYORDER=
